<?xml version="1.0" standalone="no"?>
<!DOCTYPE svg PUBLIC "-//W3C//DTD SVG 20010904//EN"
 "http://www.w3.org/TR/2001/REC-SVG-20010904/DTD/svg10.dtd">
<svg version="1.0" xmlns="http://www.w3.org/2000/svg"
 width="256.000000pt" height="256.000000pt" viewBox="0 0 256.000000 256.000000"
 preserveAspectRatio="xMidYMid meet">
<metadata>
Created by potrace 1.14, written by Peter Selinger 2001-2017
</metadata>
<g transform="translate(0.000000,256.000000) scale(0.100000,-0.100000)"
fill="#000000" stroke="none">
<path d="M1825 2544 c-33 -11 -54 -27 -116 -84 -48 -45 -125 -115 -214 -195
-55 -50 -102 -92 -105 -95 -3 -4 -34 -33 -70 -65 -114 -104 -262 -239 -289
-264 -96 -87 -207 -188 -220 -201 -9 -8 -26 -24 -38 -34 l-23 -19 -157 119
c-87 65 -163 123 -169 129 -6 5 -22 17 -34 25 -12 8 -28 20 -35 27 -29 27 -82
53 -111 53 -33 0 -59 -17 -138 -90 -107 -99 -112 -107 -102 -165 7 -33 23 -51
226 -236 52 -48 115 -105 140 -128 l45 -41 -45 -41 c-25 -23 -83 -76 -129
-118 -247 -224 -257 -237 -231 -305 9 -26 112 -128 173 -173 64 -47 77 -41
334 154 l233 176 23 -19 c12 -10 29 -26 38 -34 8 -8 55 -51 104 -95 86 -79
104 -95 195 -179 25 -22 92 -84 150 -136 57 -52 111 -102 120 -110 9 -8 58
-53 110 -100 85 -77 134 -122 240 -220 58 -53 91 -70 141 -70 46 0 90 19 546
241 95 47 129 82 138 142 3 23 5 438 3 923 l-3 881 -27 35 c-29 38 -35 41
-403 218 -215 103 -246 113 -300 94z m95 -1264 l0 -580 -47 35 c-55 40 -580
439 -603 458 -8 7 -31 23 -50 37 -63 44 -67 51 -43 67 12 8 31 22 42 31 10 10
123 96 251 192 128 96 280 212 338 257 59 46 108 83 110 83 1 0 2 -261 2 -580z"/>
</g>
</svg>
